<?xml version="1.0" standalone="no"?><!-- Generator: Gravit.io --><svg xmlns="http://www.w3.org/2000/svg" xmlns:xlink="http://www.w3.org/1999/xlink" style="isolation:isolate" viewBox="0 0 256 256" width="256" height="256"><defs><clipPath id="_clipPath_N9wpVoQPzfKue8Hq7qTZShkQDojzyXsu"><rect width="256" height="256"/></clipPath></defs><g clip-path="url(#_clipPath_N9wpVoQPzfKue8Hq7qTZShkQDojzyXsu)"><g id="Group"><defs><linearGradient id="_lgradient_0" x1="0.9033474742693295" y1="1.1397213534162778" x2="0.3196087482893014" y2="-0.1900726197881184"><stop offset="1.7391304347826086%" style="stop-color:#D5EAE7"/><stop offset="97.82608695652173%" style="stop-color:#FFFFFF"/></linearGradient></defs><path d="M 44.608 52.75 L 232.505 52.75 C 238.32 52.75 243.04 57.471 243.04 63.285 L 243.04 192.715 C 243.04 198.529 238.32 203.25 232.505 203.25 L 44.608 203.25 C 38.793 203.25 34.073 198.529 34.073 192.715 L 34.073 63.285 C 34.073 57.471 38.793 52.75 44.608 52.75 Z" style="stroke:none;fill:url(#_lgradient_0);stroke-miterlimit:10;"/><path d=" M 50.314 115.549 L 12.96 115.549 M 50.855 93.894 L 19.456 93.894 M 50.855 72.239 L 25.952 72.239 M 50.855 115.549 C 50.855 111.664 54.009 108.511 57.893 108.511 C 61.777 108.511 64.931 111.664 64.931 115.549 C 64.931 119.433 61.777 122.586 57.893 122.586 C 54.009 122.586 50.855 119.433 50.855 115.549 Z  M 50.855 93.894 C 50.855 90.01 54.009 86.856 57.893 86.856 C 61.777 86.856 64.931 90.01 64.931 93.894 C 64.931 97.778 61.777 100.932 57.893 100.932 C 54.009 100.932 50.855 97.778 50.855 93.894 Z  M 50.855 72.239 C 50.855 68.355 54.009 65.201 57.893 65.201 C 61.777 65.201 64.931 68.355 64.931 72.239 C 64.931 76.123 61.777 79.277 57.893 79.277 C 54.009 79.277 50.855 76.123 50.855 72.239 Z " fill="none" vector-effect="non-scaling-stroke" stroke-width="4.331" stroke="rgb(142,189,193)" stroke-linejoin="miter" stroke-linecap="square" stroke-miterlimit="3"/></g><path d=" M 203.296 154.476 L 203.296 154.365 C 203.394 154.365 203.49 154.361 203.586 154.355 C 203.673 154.312 203.758 154.267 203.843 154.218 L 203.899 154.315 C 205.614 154.027 206.923 152.534 206.923 150.737 L 210.496 150.737 C 210.496 152.534 211.805 154.027 213.521 154.315 L 213.576 154.218 C 213.661 154.267 213.747 154.312 213.833 154.355 C 213.929 154.361 214.026 154.365 214.123 154.365 L 214.123 154.476 C 215.753 155.085 217.633 154.446 218.531 152.89 L 221.626 154.677 C 220.727 156.233 221.114 158.18 222.456 159.287 L 222.553 159.231 C 222.602 159.316 222.653 159.398 222.707 159.478 C 222.787 159.531 222.869 159.583 222.953 159.632 L 222.897 159.728 C 224.004 161.07 225.952 161.457 227.508 160.559 L 229.294 163.653 C 227.738 164.552 227.1 166.432 227.708 168.061 L 227.82 168.061 C 227.82 168.159 227.824 168.255 227.83 168.352 C 227.873 168.438 227.918 168.524 227.966 168.608 L 227.87 168.664 C 228.157 170.379 229.65 171.688 231.447 171.688 L 231.447 175.261 C 229.65 175.261 228.157 176.57 227.87 178.286 L 227.966 178.342 C 227.918 178.426 227.873 178.512 227.83 178.598 C 227.824 178.694 227.82 178.791 227.82 178.888 L 227.708 178.888 C 227.1 180.518 227.738 182.398 229.294 183.296 L 227.508 186.391 C 225.952 185.492 224.004 185.879 222.897 187.221 L 222.953 187.318 C 222.869 187.367 222.787 187.418 222.707 187.472 C 222.653 187.552 222.602 187.634 222.553 187.718 L 222.456 187.663 C 221.114 188.769 220.727 190.717 221.626 192.273 L 218.531 194.059 C 217.633 192.503 215.753 191.865 214.123 192.474 L 214.123 192.585 C 214.026 192.585 213.929 192.589 213.833 192.595 C 213.747 192.638 213.661 192.683 213.576 192.732 L 213.521 192.635 C 211.805 192.922 210.496 194.416 210.496 196.212 L 206.923 196.212 C 206.923 194.416 205.614 192.922 203.899 192.635 L 203.843 192.732 C 203.758 192.683 203.673 192.638 203.586 192.595 C 203.49 192.589 203.394 192.585 203.296 192.585 L 203.296 192.474 C 201.667 191.865 199.786 192.503 198.888 194.059 L 195.794 192.273 C 196.692 190.717 196.305 188.769 194.963 187.663 L 194.867 187.718 C 194.818 187.634 194.766 187.552 194.713 187.472 C 194.632 187.418 194.551 187.367 194.466 187.318 L 194.522 187.221 C 193.415 185.879 191.468 185.492 189.912 186.391 L 188.125 183.296 C 189.681 182.398 190.32 180.518 189.711 178.888 L 189.599 178.888 C 189.599 178.791 189.596 178.694 189.589 178.598 C 189.547 178.512 189.502 178.426 189.453 178.342 L 189.549 178.286 C 189.262 176.57 187.769 175.261 185.972 175.261 L 185.972 171.688 C 187.769 171.688 189.262 170.379 189.549 168.664 L 189.453 168.608 C 189.502 168.524 189.547 168.438 189.589 168.352 C 189.596 168.255 189.599 168.159 189.599 168.061 L 189.711 168.061 C 190.32 166.432 189.681 164.552 188.125 163.653 L 189.912 160.559 C 191.468 161.457 193.415 161.07 194.522 159.728 L 194.466 159.632 C 194.551 159.583 194.632 159.531 194.713 159.478 C 194.766 159.398 194.818 159.316 194.867 159.231 L 194.963 159.287 C 196.305 158.18 196.692 156.233 195.794 154.677 L 198.888 152.89 C 199.786 154.446 201.667 155.085 203.296 154.476 Z " fill="rgb(142,189,193)"/><path d=" M 200.272 173.475 C 200.272 168.818 204.053 165.038 208.71 165.038 C 213.366 165.038 217.147 168.818 217.147 173.475 C 217.147 178.131 213.366 181.912 208.71 181.912 C 204.053 181.912 200.272 178.131 200.272 173.475 Z " fill="rgb(222,238,236)"/></g></svg>