<?xml version="1.0" standalone="no"?><!-- Generator: Gravit.io --><svg xmlns="http://www.w3.org/2000/svg" xmlns:xlink="http://www.w3.org/1999/xlink" style="isolation:isolate" viewBox="0 -49 520.854 313" width="520.854" height="313"><clipPath id="_clipPath_yYFn2gipdrcSBlpykaY86894V8pRHkIm"><rect x="50.23" y="-49" width="313" height="313" transform="matrix(1,0,0,1,0,0)" fill="rgb(255,255,255)"/></clipPath><g clip-path="url(#_clipPath_yYFn2gipdrcSBlpykaY86894V8pRHkIm)"><g id="null"><g id="Group"><linearGradient id="_lgradient_2" x1="0%" y1="50%" x2="52.044944060419674%" y2="135.38924872457767%"><stop offset="0%" stop-opacity="1" style="stop-color:rgb(252,254,253)"/><stop offset="100%" stop-opacity="1" style="stop-color:rgb(223,239,237)"/></linearGradient><path d=" M 80.139 39.694 L 300.637 39.694 C 307.461 39.694 313 45.234 313 52.057 L 313 203.943 C 313 210.766 307.461 216.306 300.637 216.306 L 80.139 216.306 C 73.315 216.306 67.776 210.766 67.776 203.943 L 67.776 52.057 C 67.776 45.234 73.315 39.694 80.139 39.694 Z " fill="url(#_lgradient_2)"/><path d=" M 86.835 113.389 L 43 113.389 M 87.47 87.976 L 50.623 87.976 M 87.47 62.564 L 58.246 62.564 M 87.47 113.389 C 87.47 108.83 91.171 105.13 95.729 105.13 C 100.287 105.13 103.988 108.83 103.988 113.389 C 103.988 117.947 100.287 121.647 95.729 121.647 C 91.171 121.647 87.47 117.947 87.47 113.389 Z  M 87.47 87.976 C 87.47 83.419 91.171 79.717 95.729 79.717 C 100.287 79.717 103.988 83.419 103.988 87.976 C 103.988 92.534 100.287 96.236 95.729 96.236 C 91.171 96.236 87.47 92.534 87.47 87.976 Z  M 87.47 62.564 C 87.47 58.006 91.171 54.305 95.729 54.305 C 100.287 54.305 103.988 58.006 103.988 62.564 C 103.988 67.122 100.287 70.823 95.729 70.823 C 91.171 70.823 87.47 67.122 87.47 62.564 Z " fill="none" vector-effect="non-scaling-stroke" stroke-width="5.082" stroke="rgb(142,189,193)" stroke-opacity="100" stroke-linejoin="miter" stroke-linecap="square" stroke-miterlimit="3"/></g></g></g><g transform="matrix(1,0,0,1,207.605,157.496)"><text transform="matrix(1,0,0,1,0,38.376)" style="font-family:&quot;Hasklig Black&quot;;font-weight:400;font-size:39px;font-style:normal;fill:#8ebdc1;stroke:none;">Code-</text><text transform="matrix(1,0,0,1,117,38.376)" style="font-family:&quot;Hasklig Black&quot;;font-weight:400;font-size:39px;font-style:normal;fill:#f6fbfa;stroke:none;">Runner</text></g></svg>