<?xml version="1.0" standalone="no"?><!-- Generator: Gravit.io --><svg xmlns="http://www.w3.org/2000/svg" xmlns:xlink="http://www.w3.org/1999/xlink" style="isolation:isolate" viewBox="0 -23.02 520.854 302.041" width="520.854" height="302.041"><clipPath id="_clipPath_darL5Vwyk8xutNUuU4kJduuv8UHioGGO"><rect x="27.146" y="-23.02" width="302.041" height="302.041" transform="matrix(1,0,0,1,0,0)" fill="rgb(255,255,255)"/></clipPath><g clip-path="url(#_clipPath_darL5Vwyk8xutNUuU4kJduuv8UHioGGO)"><g id="null"><g id="Group"><linearGradient id="_lgradient_0" x1="0%" y1="50%" x2="52.044944060419674%" y2="135.38924872457767%"><stop offset="0%" stop-opacity="1" style="stop-color:rgb(15,142,129)"/><stop offset="100%" stop-opacity="1" style="stop-color:rgb(22,115,112)"/></linearGradient><path d=" M 79.776 39.216 L 301.466 39.216 C 308.327 39.216 313.896 44.787 313.896 51.646 L 313.896 204.354 C 313.896 211.213 308.327 216.784 301.466 216.784 L 79.776 216.784 C 72.915 216.784 67.347 211.213 67.347 204.354 L 67.347 51.646 C 67.347 44.787 72.915 39.216 79.776 39.216 Z " fill="url(#_lgradient_0)"/><linearGradient id="_lgradient_1" x1="0%" y1="50%" x2="45.334793138010724%" y2="-39.133363737344595%"><stop offset="0%" stop-opacity="1" style="stop-color:rgb(2,72,93)"/><stop offset="100%" stop-opacity="1" style="stop-color:rgb(6,92,118)"/></linearGradient><path d=" M 86.508 113.31 L 42.436 113.31 M 87.147 87.76 L 50.101 87.76 M 87.147 62.211 L 57.765 62.211 M 87.147 113.31 C 87.147 108.726 90.868 105.006 95.451 105.006 C 100.033 105.006 103.754 108.726 103.754 113.31 C 103.754 117.892 100.033 121.612 95.451 121.612 C 90.868 121.612 87.147 117.892 87.147 113.31 Z  M 87.147 87.76 C 87.147 83.178 90.868 79.456 95.451 79.456 C 100.033 79.456 103.754 83.178 103.754 87.76 C 103.754 92.343 100.033 96.064 95.451 96.064 C 90.868 96.064 87.147 92.343 87.147 87.76 Z  M 87.147 62.211 C 87.147 57.628 90.868 53.907 95.451 53.907 C 100.033 53.907 103.754 57.628 103.754 62.211 C 103.754 66.793 100.033 70.514 95.451 70.514 C 90.868 70.514 87.147 66.793 87.147 62.211 Z " fill="none" vector-effect="non-scaling-stroke" stroke-width="5.11" stroke="url(#_lgradient_1)" stroke-linejoin="miter" stroke-linecap="square" stroke-miterlimit="3"/></g></g></g><g transform="matrix(1,0,0,1,207.605,157.496)"><text transform="matrix(1,0,0,1,0,38.376)" style="font-family:&quot;Hasklig Black&quot;;font-weight:400;font-size:39px;font-style:normal;fill:#03495e;stroke:none;">Code</text><text transform="matrix(1,0,0,1,93.6,38.376)" style="font-family:&quot;Hasklig Black&quot;;font-weight:400;font-size:39px;font-style:normal;fill:#02485d;stroke:none;">-</text><text transform="matrix(1,0,0,1,117,38.376)" style="font-family:&quot;Hasklig Black&quot;;font-weight:400;font-size:39px;font-style:normal;fill:#12847b;stroke:none;">Runner</text></g></svg>